<svg data-name="logo" xmlns="http://www.w3.org/2000/svg" viewBox="0 0 595.28 120.45"><defs></defs><polyline class="cls-2" points="81.93 35.94 0 67.99 0 88.39 81.93 120.45 81.93 98.43 30.6 78.36 30.6 78.03 81.93 57.95 81.93 35.94"></polyline><path class="cls-1" d="M165.08,47.5a31,31,0,0,0-13.36-8.18A50.26,50.26,0,0,0,137.07,37,49.59,49.59,0,0,0,120,39.89a41.1,41.1,0,0,0-13.92,8.34,39.13,39.13,0,0,0-9.31,13,41.25,41.25,0,0,0-3.4,17,41.23,41.23,0,0,0,3.4,17,39.09,39.09,0,0,0,9.31,13A41.08,41.08,0,0,0,120,116.64a49.59,49.59,0,0,0,17.08,2.91,50.26,50.26,0,0,0,14.65-2.35A31,31,0,0,0,165.08,109l-16-16.84a21.23,21.23,0,0,1-5,4.21,13.08,13.08,0,0,1-7,1.78q-9.23,0-14.33-5.5t-5.1-14.41q0-8.9,5.1-14.41t14.33-5.5a14.76,14.76,0,0,1,7,1.7,13.63,13.63,0,0,1,5,4.29l16-16.84Zm10,70.11h24.29V38.92H175.08v78.69Zm2.18-93.5a14.07,14.07,0,0,0,19.92,0,13.57,13.57,0,0,0,4.13-10,13.57,13.57,0,0,0-4.13-10,14.07,14.07,0,0,0-19.92,0,13.57,13.57,0,0,0-4.13,10,13.57,13.57,0,0,0,4.13,10Zm92.86,14.82H248.75V15.61H224.46V38.92H208.92V58.35h15.54v37.4a25.18,25.18,0,0,0,2.18,11,19.31,19.31,0,0,0,6.07,7.37,25.81,25.81,0,0,0,9.07,4.13,46.73,46.73,0,0,0,11.33,1.29,77.52,77.52,0,0,0,8.58-.49,36.74,36.74,0,0,0,8.42-1.94V96.89a8.64,8.64,0,0,1-4.78,1.86,41.9,41.9,0,0,1-5.1.4A15.42,15.42,0,0,1,254,98.1a7.35,7.35,0,0,1-3.48-3,11.87,11.87,0,0,1-1.46-4.61,48.88,48.88,0,0,1-.32-5.91V58.35h21.37V38.92ZM282,117.61H306.3V84.74a81.06,81.06,0,0,1,.65-10.69,20.6,20.6,0,0,1,2.83-8.34A14.62,14.62,0,0,1,316,60.3q4-1.94,11-1.94a33.3,33.3,0,0,1,5.26.4,37,37,0,0,1,5.1,1.21V37.79a21,21,0,0,0-3.89-.65q-2.11-.16-4.21-.16-8.1,0-13.44,3.64a29.85,29.85,0,0,0-9.23,10.93h-.32V38.92H282v78.69ZM422.87,38.92H398.59V78.11a55.16,55.16,0,0,1-.49,7.45,18.52,18.52,0,0,1-2,6.4,11.6,11.6,0,0,1-4.45,4.53,15,15,0,0,1-7.61,1.7q-4.7,0-7.21-1.94a11.58,11.58,0,0,1-3.72-5,22.16,22.16,0,0,1-1.46-6.72q-.24-3.64-.24-7V38.92H347.1V82.31A96.4,96.4,0,0,0,348.15,97a30.76,30.76,0,0,0,4.21,11.82,21.41,21.41,0,0,0,8.9,7.85q5.75,2.83,15,2.83a27.74,27.74,0,0,0,8.1-1.13,28.62,28.62,0,0,0,6.64-2.91,21.72,21.72,0,0,0,4.94-4,26.86,26.86,0,0,0,3.32-4.53h.32v10.69h23.32V38.92Zm77.25,54.73q0-7.45-3-11.9a22.14,22.14,0,0,0-7.61-7,37.19,37.19,0,0,0-9.88-3.8l-9.88-2.27a39.43,39.43,0,0,1-7.61-2.43,4.51,4.51,0,0,1-3-4.29,5.15,5.15,0,0,1,2.92-5,13.25,13.25,0,0,1,6-1.46,17.2,17.2,0,0,1,14.09,6.64l14.9-14.73a29.16,29.16,0,0,0-13.44-8.1A57,57,0,0,0,467.91,37a48.66,48.66,0,0,0-12.14,1.54,32.26,32.26,0,0,0-10.61,4.78,24.91,24.91,0,0,0-7.45,8.26,24,24,0,0,0-2.83,12q0,7.45,3,11.9a20.63,20.63,0,0,0,7.61,6.88A40.74,40.74,0,0,0,455.36,86l9.88,2.27a32.91,32.91,0,0,1,7.61,2.59,4.94,4.94,0,0,1,3,4.61q0,3.24-3.4,4.45a22.49,22.49,0,0,1-7.61,1.21,20.3,20.3,0,0,1-9.63-2.19,24.44,24.44,0,0,1-7.53-6.4l-14.73,16.35a31.12,31.12,0,0,0,14.25,8.34,61.93,61.93,0,0,0,16.68,2.35,69.35,69.35,0,0,0,12.79-1.21,36.57,36.57,0,0,0,11.66-4.21,25.45,25.45,0,0,0,8.5-7.93q3.32-4.94,3.32-12.55"></path><polyline class="cls-2" points="513.35 35.94 595.28 67.99 595.28 88.39 513.35 120.45 513.35 98.43 564.68 78.36 564.68 78.03 513.35 57.95 513.35 35.94"></polyline></svg>